# xmcd
#
# Track frame offsets:
#	182
#	10397
#	20765
#	35917
#	47070
#	57695
#	68835
#	81167
#	97485
#	106975
#	116685
#	127822
#	138312
#	151257
#	162870
#	173227
#	183870
#
# Disc length: 2580 seconds
#
# Revision: 0
# Processed by: cddbd v1.5.1PL2 Copyright (c) Steve Scherf et al.
# Submitted via: audiograbber 1.83.01
#
DISCID=ee0a1211
DTITLE=Bill Haley and His Comets - 16 greatest hits
DYEAR=1900
DGENRE=
TTITLE0=Rock Around The Clock
TTITLE1=See You Later, Alligator
TTITLE2=Shake, Rattle And Roll
TTITLE3=Rip It Up
TTITLE4=ABC Boogie
TTITLE5=The Paper Boy
TTITLE6=Burn That Candle
TTITLE7=The Saints Rock 'n Roll
TTITLE8=Razzle Dazzle
TTITLE9=Whole Lotta Shakin' Goin' On
TTITLE10=How Many
TTITLE11=Caravan
TTITLE12=Thirteen Woman
TTITLE13=Happy Baby
TTITLE14=Rock - A - Beatin' Boogie
TTITLE15=Skokiaon
TTITLE16=Blue Comet Blues
EXTD=
EXTT0=
EXTT1=
EXTT2=
EXTT3=
EXTT4=
EXTT5=
EXTT6=
EXTT7=
EXTT8=
EXTT9=
EXTT10=
EXTT11=
EXTT12=
EXTT13=
EXTT14=
EXTT15=
EXTT16=
PLAYORDER=
